name analog
datacolumns 19
datarows 35
range 0.552 0.5690000000000001
endheader
time	ground_force_vx	ground_force_vy	ground_force_vz	ground_force_px	ground_force_py	ground_force_pz	l_ground_force_vx	l_ground_force_vy	l_ground_force_vz	l_ground_force_px	l_ground_force_py	l_ground_force_pz	ground_torque_x	ground_torque_y	ground_torque_z	l_ground_torque_x	l_ground_torque_y	l_ground_torque_z
0.552	-0.0	-0.0	-0.0	-0.0	-0.0	-0.0	6.638418674468994	11.24876594543457	-683.3190307617188	-0.0	-0.0	-0.0	-0.0	-0.0	-0.0	239979.4375	-33014.96875	-2546.0185546875
0.5525	-0.0	-0.0	-0.0	-0.0	-0.0	-0.0	4.549001693725586	10.68692398071289	-696.0419921875	-0.0	-0.0	-0.0	-0.0	-0.0	-0.0	244737.90625	-33146.51953125	-3222.5966796875
0.553	-0.0	-0.0	-0.0	-0.0	-0.0	-0.0	2.9523041248321533	10.471437454223633	-706.5430297851562	-0.0	-0.0	-0.0	-0.0	-0.0	-0.0	248829.21875	-33271.546875	-3699.673583984375
0.5535	-0.0	-0.0	-0.0	-0.0	-0.0	-0.0	0.9868896007537842	9.708478927612305	-718.581298828125	-0.0	-0.0	-0.0	-0.0	-0.0	-0.0	252518.703125	-33540.06640625	-4429.7548828125
0.554	-0.0	-0.0	-0.0	-0.0	-0.0	-0.0	-0.92563796043396	8.818787574768066	-727.8823852539062	-0.0	-0.0	-0.0	-0.0	-0.0	-0.0	255521.40625	-32928.984375	-4954.56005859375
0.5545	-0.0	-0.0	-0.0	-0.0	-0.0	-0.0	-2.8135337829589844	7.67747688293457	-734.7656860351562	-0.0	-0.0	-0.0	-0.0	-0.0	-0.0	258192.4375	-32944.0234375	-5684.9296875
0.555	-0.0	-0.0	-0.0	-0.0	-0.0	-0.0	-4.7713470458984375	7.06573486328125	-742.3461303710938	-0.0	-0.0	-0.0	-0.0	-0.0	-0.0	260433.4375	-32369.15625	-6411.14453125
0.5555	-0.0	-0.0	-0.0	-0.0	-0.0	-0.0	-6.868534088134766	6.50431489944458	-748.9788208007812	-0.0	-0.0	-0.0	-0.0	-0.0	-0.0	262821.96875	-32184.28515625	-7090.873046875
0.556	-0.0	-0.0	-0.0	-0.0	-0.0	-0.0	-8.750799179077148	5.356193065643311	-754.6173095703125	-0.0	-0.0	-0.0	-0.0	-0.0	-0.0	265124.84375	-31592.798828125	-7696.40087890625
0.5565	-0.0	-0.0	-0.0	-0.0	-0.0	-0.0	-9.618036270141602	4.820584297180176	-759.731201171875	-0.0	-0.0	-0.0	-0.0	-0.0	-0.0	266742.4375	-31573.5625	-8070.37158203125
0.557	-0.0	-0.0	-0.0	-0.0	-0.0	-0.0	-10.467872619628906	4.359071731567383	-765.0706176757812	-0.0	-0.0	-0.0	-0.0	-0.0	-0.0	268511.5625	-31386.60546875	-8242.4248046875
0.5575	-0.0	-0.0	-0.0	-0.0	-0.0	-0.0	-11.349495887756348	4.031537055969238	-770.0460815429688	-0.0	-0.0	-0.0	-0.0	-0.0	-0.0	270307.4375	-31201.5	-8499.62890625
0.558	-0.0	-0.0	-0.0	-0.0	-0.0	-0.0	-11.767208099365234	3.938043355941773	-773.84326171875	-0.0	-0.0	-0.0	-0.0	-0.0	-0.0	271942.65625	-31182.69140625	-8512.234375
0.5585	-0.0	-0.0	-0.0	-0.0	-0.0	-0.0	-11.970870971679688	3.387352228164673	-779.2234497070312	-0.0	-0.0	-0.0	-0.0	-0.0	-0.0	273421.40625	-30963.431640625	-8599.76953125
0.559	-0.0	-0.0	-0.0	-0.0	-0.0	-0.0	-11.896981239318848	2.706916093826294	-782.137939453125	-0.0	-0.0	-0.0	-0.0	-0.0	-0.0	274427.78125	-30708.748046875	-8404.32421875
0.5595	-0.0	-0.0	-0.0	-0.0	-0.0	-0.0	-11.350257873535156	2.5256192684173584	-784.439697265625	-0.0	-0.0	-0.0	-0.0	-0.0	-0.0	274987.09375	-30733.0078125	-8092.14111328125
0.56	-0.0	-0.0	-0.0	-0.0	-0.0	-0.0	-10.201740264892578	2.0668673515319824	-785.8358764648438	-0.0	-0.0	-0.0	-0.0	-0.0	-0.0	275280.75	-30570.32421875	-7621.5126953125
0.5605	-0.0	-0.0	-0.0	-0.0	-0.0	-0.0	-9.137210845947266	1.4662885665893557	-784.9978637695312	-0.0	-0.0	-0.0	-0.0	-0.0	-0.0	274953.46875	-30317.05859375	-6947.51123046875
0.561	-0.0	-0.0	-0.0	-0.0	-0.0	-0.0	-7.953007698059082	-0.0041594728827476	-782.6925048828125	-0.0	-0.0	-0.0	-0.0	-0.0	-0.0	274151.90625	-29969.712890625	-6509.6416015625
0.5615	-0.0	-0.0	-0.0	-0.0	-0.0	-0.0	-7.301166534423828	-0.7373521327972412	-779.5338745117188	-0.0	-0.0	-0.0	-0.0	-0.0	-0.0	272711.90625	-29678.76953125	-6107.18310546875
0.562	-0.0	-0.0	-0.0	-0.0	-0.0	-0.0	-6.7420196533203125	-2.096609592437744	-775.4507446289062	-0.0	-0.0	-0.0	-0.0	-0.0	-0.0	271027.8125	-29355.57421875	-5681.47216796875
0.5625	-0.0	-0.0	-0.0	-0.0	-0.0	-0.0	-7.066081523895264	-3.6211891174316406	-770.9267578125	-0.0	-0.0	-0.0	-0.0	-0.0	-0.0	269154.0625	-28565.154296875	-5542.82763671875
0.5630000000000001	-0.0	-0.0	-0.0	-0.0	-0.0	-0.0	-7.066154003143311	-4.742197513580322	-766.3878173828125	-0.0	-0.0	-0.0	-0.0	-0.0	-0.0	267737.5	-28116.49609375	-5453.001953125
0.5635	-0.0	-0.0	-0.0	-0.0	-0.0	-0.0	-7.243624210357666	-5.856501579284668	-764.0386962890625	-0.0	-0.0	-0.0	-0.0	-0.0	-0.0	266497.40625	-27623.5546875	-5205.912109375
0.5640000000000001	-0.0	-0.0	-0.0	-0.0	-0.0	-0.0	-6.97755241394043	-7.035269260406494	-761.415771484375	-0.0	-0.0	-0.0	-0.0	-0.0	-0.0	265525.03125	-27396.966796875	-4988.24267578125
0.5645	-0.0	-0.0	-0.0	-0.0	-0.0	-0.0	-6.267938613891602	-7.394344806671143	-759.6450805664062	-0.0	-0.0	-0.0	-0.0	-0.0	-0.0	265236.375	-26912.865234375	-4732.16650390625
0.5650000000000001	-0.0	-0.0	-0.0	-0.0	-0.0	-0.0	-5.439111709594727	-8.539571762084961	-759.5247192382812	-0.0	-0.0	-0.0	-0.0	-0.0	-0.0	265081.0	-27019.80859375	-4307.32275390625
0.5655	-0.0	-0.0	-0.0	-0.0	-0.0	-0.0	-4.017257213592529	-8.83730411529541	-760.4420776367188	-0.0	-0.0	-0.0	-0.0	-0.0	-0.0	264837.875	-26886.29296875	-3977.49560546875
0.5660000000000001	-0.0	-0.0	-0.0	-0.0	-0.0	-0.0	-2.780391931533813	-9.745610237121582	-759.8640747070312	-0.0	-0.0	-0.0	-0.0	-0.0	-0.0	264798.78125	-26658.6953125	-3612.524658203125
0.5665	-0.0	-0.0	-0.0	-0.0	-0.0	-0.0	-2.066284656524658	-9.833870887756348	-758.12744140625	-0.0	-0.0	-0.0	-0.0	-0.0	-0.0	264491.40625	-26527.697265625	-3108.560546875
0.5670000000000001	-0.0	-0.0	-0.0	-0.0	-0.0	-0.0	-1.3589235544204712	-9.59697151184082	-758.119384765625	-0.0	-0.0	-0.0	-0.0	-0.0	-0.0	264278.78125	-26508.21484375	-2870.709228515625
0.5675	-0.0	-0.0	-0.0	-0.0	-0.0	-0.0	-1.2419509887695312	-9.063471794128418	-757.6661376953125	-0.0	-0.0	-0.0	-0.0	-0.0	-0.0	263788.3125	-26150.287109375	-2741.760009765625
0.5680000000000001	-0.0	-0.0	-0.0	-0.0	-0.0	-0.0	-0.9172232151031494	-8.452155113220215	-756.3680419921875	-0.0	-0.0	-0.0	-0.0	-0.0	-0.0	263555.53125	-25938.435546875	-2691.609619140625
0.5685	-0.0	-0.0	-0.0	-0.0	-0.0	-0.0	-0.8842718005180359	-7.7737202644348145	-755.7949829101562	-0.0	-0.0	-0.0	-0.0	-0.0	-0.0	263166.1875	-25510.876953125	-2553.7109375
0.5690000000000001	-0.0	-0.0	-0.0	-0.0	-0.0	-0.0	-1.0932515859603882	-7.035871982574463	-754.8658447265625	-0.0	-0.0	-0.0	-0.0	-0.0	-0.0	263520.78125	-25426.826171875	-2663.149169921875
